<svg width="157" height="28" viewBox="0 0 157 28" fill="currentColor" xmlns="http://www.w3.org/2000/svg">
<path d="M11.942 7H14.518V21H11.942L11.844 18.76C11.4147 19.544 10.8267 20.174 10.08 20.65C9.34267 21.126 8.46533 21.364 7.448 21.364C6.42133 21.364 5.45533 21.1727 4.55 20.79C3.654 20.398 2.86067 19.8613 2.17 19.18C1.48867 18.4893 0.956667 17.696 0.574 16.8C0.191333 15.8947 0 14.9287 0 13.902C0 12.894 0.186667 11.9513 0.56 11.074C0.933333 10.1873 1.45133 9.41267 2.114 8.75C2.786 8.078 3.56067 7.55533 4.438 7.182C5.31533 6.79933 6.25333 6.608 7.252 6.608C8.316 6.608 9.254 6.85533 10.066 7.35C10.878 7.84467 11.5407 8.484 12.054 9.268L11.942 7ZM7.392 18.872C8.26933 18.872 9.03467 18.6527 9.688 18.214C10.3413 17.7753 10.8453 17.1873 11.2 16.45C11.564 15.7127 11.746 14.896 11.746 14C11.746 13.0853 11.564 12.2593 11.2 11.522C10.836 10.7847 10.3273 10.2013 9.674 9.772C9.03 9.33333 8.26933 9.114 7.392 9.114C6.51467 9.114 5.712 9.33333 4.984 9.772C4.26533 10.2107 3.69133 10.8033 3.262 11.55C2.842 12.2873 2.632 13.104 2.632 14C2.632 14.9053 2.85133 15.7267 3.29 16.464C3.72867 17.2013 4.30733 17.7893 5.026 18.228C5.74467 18.6573 6.53333 18.872 7.392 18.872Z"/>
<path d="M17.3283 21V7H19.9043V8.638C20.3989 8.01267 21.0103 7.518 21.7383 7.154C22.4756 6.79 23.2736 6.608 24.1323 6.608C25.1496 6.608 26.0829 6.85533 26.9323 7.35C27.7909 7.84467 28.4676 8.498 28.9623 9.31C29.4569 8.498 30.1243 7.84467 30.9643 7.35C31.8043 6.85533 32.7329 6.608 33.7503 6.608C34.7956 6.608 35.7429 6.86467 36.5923 7.378C37.4509 7.882 38.1323 8.56333 38.6363 9.422C39.1496 10.2713 39.4063 11.2187 39.4063 12.264V21H36.8303V12.894C36.8303 12.2313 36.6669 11.6247 36.3403 11.074C36.0229 10.514 35.5936 10.066 35.0523 9.73C34.5109 9.38467 33.9089 9.212 33.2463 9.212C32.5836 9.212 31.9816 9.37067 31.4403 9.688C30.8989 10.0053 30.4649 10.444 30.1383 11.004C29.8209 11.5547 29.6623 12.1847 29.6623 12.894V21H27.0863V12.894C27.0863 12.1847 26.9229 11.5547 26.5963 11.004C26.2789 10.444 25.8449 10.0053 25.2943 9.688C24.7529 9.37067 24.1509 9.212 23.4883 9.212C22.8349 9.212 22.2329 9.38467 21.6823 9.73C21.1409 10.066 20.7069 10.514 20.3803 11.074C20.0629 11.6247 19.9043 12.2313 19.9043 12.894V21H17.3283Z"/>
<path d="M49.5018 6.608C50.8645 6.608 52.1058 6.93933 53.2258 7.602C54.3458 8.26467 55.2371 9.156 55.8998 10.276C56.5625 11.3867 56.8938 12.6233 56.8938 13.986C56.8938 15.0033 56.7025 15.96 56.3198 16.856C55.9371 17.7427 55.4051 18.5267 54.7238 19.208C54.0518 19.88 53.2678 20.4073 52.3718 20.79C51.4851 21.1727 50.5285 21.364 49.5018 21.364C48.4658 21.364 47.5605 21.1213 46.7858 20.636C46.0205 20.1507 45.3998 19.5207 44.9238 18.746V21H42.3478V0H44.9238V9.226C45.3998 8.45134 46.0205 7.82133 46.7858 7.336C47.5605 6.85067 48.4658 6.608 49.5018 6.608ZM49.4878 18.858C50.3651 18.858 51.1631 18.6387 51.8818 18.2C52.6005 17.7613 53.1745 17.1733 53.6038 16.436C54.0331 15.6893 54.2478 14.8727 54.2478 13.986C54.2478 13.0713 54.0285 12.2453 53.5898 11.508C53.1605 10.7707 52.5818 10.1873 51.8538 9.758C51.1351 9.31933 50.3465 9.1 49.4878 9.1C48.6105 9.1 47.8451 9.324 47.1918 9.772C46.5385 10.2107 46.0298 10.7987 45.6658 11.536C45.3111 12.2733 45.1338 13.09 45.1338 13.986C45.1338 14.8913 45.3158 15.7127 45.6798 16.45C46.0438 17.1873 46.5525 17.7753 47.2058 18.214C47.8591 18.6433 48.6198 18.858 49.4878 18.858Z"/>
<path d="M65.2969 21.364C64.0089 21.364 62.8329 21.0327 61.7689 20.37C60.7142 19.7073 59.8695 18.8207 59.2349 17.71C58.6095 16.59 58.2969 15.3533 58.2969 14C58.2969 12.9733 58.4789 12.0167 58.8429 11.13C59.2069 10.234 59.7062 9.45 60.3409 8.778C60.9849 8.09667 61.7315 7.56467 62.5809 7.182C63.4302 6.79933 64.3355 6.608 65.2969 6.608C66.3515 6.608 67.3222 6.82733 68.2089 7.266C69.1049 7.69533 69.8655 8.29267 70.4909 9.058C71.1255 9.814 71.5969 10.696 71.9049 11.704C72.2129 12.712 72.3202 13.7853 72.2269 14.924H61.0409C61.1622 15.652 61.4142 16.31 61.7969 16.898C62.1889 17.4767 62.6835 17.934 63.2809 18.27C63.8875 18.606 64.5595 18.7787 65.2969 18.788C66.0902 18.788 66.8042 18.5873 67.4389 18.186C68.0829 17.7847 68.6055 17.234 69.0069 16.534L71.6249 17.136C71.0649 18.3773 70.2202 19.3947 69.0909 20.188C67.9615 20.972 66.6969 21.364 65.2969 21.364ZM60.9569 12.922H69.6229C69.5389 12.1847 69.2915 11.5127 68.8809 10.906C68.4795 10.29 67.9662 9.80467 67.3409 9.45C66.7155 9.086 66.0342 8.904 65.2969 8.904C64.5595 8.904 63.8829 9.08133 63.2669 9.436C62.6509 9.79067 62.1422 10.276 61.7409 10.892C61.3395 11.4987 61.0782 12.1753 60.9569 12.922Z"/>
<path d="M74.5587 21V7H77.1348V8.638C77.6201 8.01267 78.2314 7.518 78.9688 7.154C79.7154 6.79 80.5181 6.608 81.3767 6.608C81.9087 6.608 82.4267 6.678 82.9307 6.818L81.9088 9.408C81.5354 9.27733 81.1621 9.212 80.7887 9.212C80.1261 9.212 79.5148 9.37533 78.9548 9.702C78.4041 10.0287 77.9607 10.472 77.6247 11.032C77.2981 11.5827 77.1348 12.194 77.1348 12.866V21H74.5587Z"/>
<path d="M88.8359 21.266C88.0892 21.2287 87.3612 21.084 86.6519 20.832C85.9426 20.5707 85.3219 20.2207 84.7899 19.782C84.2579 19.3433 83.8659 18.8347 83.6139 18.256L85.8119 17.318C85.9426 17.6073 86.1759 17.8827 86.5119 18.144C86.8572 18.4053 87.2539 18.62 87.7019 18.788C88.1592 18.956 88.6212 19.04 89.0879 19.04C89.5732 19.04 90.0259 18.9653 90.4459 18.816C90.8659 18.6667 91.2066 18.4473 91.4679 18.158C91.7386 17.8593 91.8739 17.5093 91.8739 17.108C91.8739 16.66 91.7246 16.31 91.4259 16.058C91.1366 15.806 90.7679 15.61 90.3199 15.47C89.8719 15.33 89.4192 15.1993 88.9619 15.078C88.0192 14.8447 87.1652 14.5553 86.3999 14.21C85.6439 13.8647 85.0466 13.4213 84.6079 12.88C84.1692 12.3293 83.9499 11.6433 83.9499 10.822C83.9499 9.94467 84.1926 9.184 84.6779 8.54C85.1632 7.896 85.7979 7.40133 86.5819 7.056C87.3659 6.70133 88.2059 6.524 89.1019 6.524C90.2219 6.524 91.2486 6.76667 92.1819 7.252C93.1246 7.728 93.8292 8.38133 94.2959 9.212L92.2379 10.43C92.0886 10.1127 91.8599 9.83267 91.5519 9.59C91.2439 9.34733 90.8939 9.156 90.5019 9.016C90.1099 8.86667 89.7039 8.78267 89.2839 8.764C88.7612 8.75467 88.2806 8.82467 87.8419 8.974C87.4032 9.114 87.0486 9.33333 86.7779 9.632C86.5072 9.93067 86.3719 10.3087 86.3719 10.766C86.3719 11.214 86.5166 11.55 86.8059 11.774C87.1046 11.998 87.4919 12.18 87.9679 12.32C88.4439 12.4507 88.9479 12.6 89.4799 12.768C90.3199 13.0387 91.1086 13.3607 91.8459 13.734C92.5832 14.098 93.1759 14.546 93.6239 15.078C94.0719 15.61 94.2912 16.2727 94.2819 17.066C94.2819 17.934 94.0206 18.6947 93.4979 19.348C92.9752 19.992 92.2986 20.4867 91.4679 20.832C90.6466 21.168 89.7692 21.3127 88.8359 21.266Z"/>
<path d="M99.2558 28H96.6798V7H99.2558V9.254C99.7318 8.47933 100.353 7.84933 101.118 7.364C101.883 6.87867 102.789 6.636 103.834 6.636C104.861 6.636 105.817 6.82733 106.704 7.21C107.591 7.59267 108.37 8.12467 109.042 8.806C109.723 9.478 110.251 10.2573 110.624 11.144C111.007 12.0307 111.198 12.9827 111.198 14C111.198 15.0173 111.007 15.974 110.624 16.87C110.251 17.766 109.723 18.5547 109.042 19.236C108.37 19.908 107.591 20.4353 106.704 20.818C105.817 21.2007 104.861 21.392 103.834 21.392C102.789 21.392 101.883 21.1493 101.118 20.664C100.353 20.1787 99.7318 19.5487 99.2558 18.774V28ZM103.82 9.128C102.952 9.128 102.191 9.34733 101.538 9.786C100.885 10.2247 100.376 10.8127 100.012 11.55C99.6478 12.278 99.4658 13.0947 99.4658 14C99.4658 14.896 99.6432 15.7127 99.9978 16.45C100.362 17.1873 100.871 17.78 101.524 18.228C102.177 18.6667 102.943 18.886 103.82 18.886C104.679 18.886 105.467 18.6713 106.186 18.242C106.914 17.8033 107.493 17.2153 107.922 16.478C108.361 15.7407 108.58 14.9147 108.58 14C108.58 13.1133 108.365 12.3013 107.936 11.564C107.507 10.8267 106.933 10.2387 106.214 9.8C105.495 9.352 104.697 9.128 103.82 9.128Z"/>
<path d="M124.544 7H127.12V21H124.544L124.446 18.76C124.016 19.544 123.428 20.174 122.682 20.65C121.944 21.126 121.067 21.364 120.05 21.364C119.023 21.364 118.057 21.1727 117.152 20.79C116.256 20.398 115.462 19.8613 114.772 19.18C114.09 18.4893 113.558 17.696 113.176 16.8C112.793 15.8947 112.602 14.9287 112.602 13.902C112.602 12.894 112.788 11.9513 113.162 11.074C113.535 10.1873 114.053 9.41267 114.716 8.75C115.388 8.078 116.162 7.55533 117.04 7.182C117.917 6.79933 118.855 6.608 119.854 6.608C120.918 6.608 121.856 6.85533 122.668 7.35C123.48 7.84467 124.142 8.484 124.656 9.268L124.544 7ZM119.994 18.872C120.871 18.872 121.636 18.6527 122.29 18.214C122.943 17.7753 123.447 17.1873 123.802 16.45C124.166 15.7127 124.348 14.896 124.348 14C124.348 13.0853 124.166 12.2593 123.802 11.522C123.438 10.7847 122.929 10.2013 122.276 9.772C121.632 9.33333 120.871 9.114 119.994 9.114C119.116 9.114 118.314 9.33333 117.586 9.772C116.867 10.2107 116.293 10.8033 115.864 11.55C115.444 12.2873 115.234 13.104 115.234 14C115.234 14.9053 115.453 15.7267 115.892 16.464C116.33 17.2013 116.909 17.7893 117.628 18.228C118.346 18.6573 119.135 18.872 119.994 18.872Z"/>
<path d="M139.092 17.192L141.402 18.438C140.768 19.3247 139.96 20.034 138.98 20.566C138.01 21.098 136.955 21.364 135.816 21.364C134.528 21.364 133.352 21.0327 132.288 20.37C131.234 19.7073 130.389 18.8207 129.754 17.71C129.129 16.59 128.816 15.3533 128.816 14C128.816 12.9733 128.998 12.0167 129.362 11.13C129.726 10.234 130.226 9.45 130.86 8.778C131.504 8.09667 132.251 7.56467 133.1 7.182C133.95 6.79933 134.855 6.608 135.816 6.608C136.955 6.608 138.01 6.874 138.98 7.406C139.96 7.938 140.768 8.652 141.402 9.548L139.092 10.794C138.672 10.2713 138.173 9.87467 137.594 9.604C137.016 9.324 136.423 9.184 135.816 9.184C134.986 9.184 134.234 9.408 133.562 9.856C132.89 10.2947 132.358 10.878 131.966 11.606C131.584 12.334 131.392 13.132 131.392 14C131.392 14.8587 131.588 15.652 131.98 16.38C132.382 17.108 132.918 17.6913 133.59 18.13C134.262 18.5687 135.004 18.788 135.816 18.788C136.46 18.788 137.067 18.6433 137.636 18.354C138.215 18.0553 138.7 17.668 139.092 17.192Z"/>
<path d="M149.789 21.364C148.501 21.364 147.325 21.0327 146.261 20.37C145.206 19.7073 144.362 18.8207 143.727 17.71C143.102 16.59 142.789 15.3533 142.789 14C142.789 12.9733 142.971 12.0167 143.335 11.13C143.699 10.234 144.198 9.45 144.833 8.778C145.477 8.09667 146.224 7.56467 147.073 7.182C147.922 6.79933 148.828 6.608 149.789 6.608C150.844 6.608 151.814 6.82733 152.701 7.266C153.597 7.69533 154.358 8.29267 154.983 9.058C155.618 9.814 156.089 10.696 156.397 11.704C156.705 12.712 156.812 13.7853 156.719 14.924H145.533C145.654 15.652 145.906 16.31 146.289 16.898C146.681 17.4767 147.176 17.934 147.773 18.27C148.38 18.606 149.052 18.7787 149.789 18.788C150.582 18.788 151.296 18.5873 151.931 18.186C152.575 17.7847 153.098 17.234 153.499 16.534L156.117 17.136C155.557 18.3773 154.712 19.3947 153.583 20.188C152.454 20.972 151.189 21.364 149.789 21.364ZM145.449 12.922H154.115C154.031 12.1847 153.784 11.5127 153.373 10.906C152.972 10.29 152.458 9.80467 151.833 9.45C151.208 9.086 150.526 8.904 149.789 8.904C149.052 8.904 148.375 9.08133 147.759 9.436C147.143 9.79067 146.634 10.276 146.233 10.892C145.832 11.4987 145.57 12.1753 145.449 12.922Z"/>
</svg>
